<?xml version="1.0" encoding="UTF-8" standalone="no"?>
<!-- Created with Inkscape (http://www.inkscape.org/) -->

<svg
   width="286.12253"
   height="53.104515"
   viewBox="0 0 75.703249 14.05057"
   version="1.1"
   id="svg1366"
   inkscape:version="1.4 (86a8ad7, 2024-10-11)"
   sodipodi:docname="Achmea_logo.svg"
   xmlns:inkscape="http://www.inkscape.org/namespaces/inkscape"
   xmlns:sodipodi="http://sodipodi.sourceforge.net/DTD/sodipodi-0.dtd"
   xmlns="http://www.w3.org/2000/svg"
   xmlns:svg="http://www.w3.org/2000/svg"
   xmlns:rdf="http://www.w3.org/1999/02/22-rdf-syntax-ns#"
   xmlns:cc="http://creativecommons.org/ns#"
   xmlns:dc="http://purl.org/dc/elements/1.1/">
  <defs
     id="defs1360" />
  <sodipodi:namedview
     id="base"
     pagecolor="#ffffff"
     bordercolor="#666666"
     borderopacity="1.0"
     inkscape:pageopacity="0.0"
     inkscape:pageshadow="2"
     inkscape:zoom="0.44849997"
     inkscape:cx="249.72131"
     inkscape:cy="-168.33892"
     inkscape:document-units="mm"
     inkscape:current-layer="layer1"
     showgrid="false"
     fit-margin-top="0"
     fit-margin-left="0"
     fit-margin-right="0"
     fit-margin-bottom="0"
     units="px"
     inkscape:window-width="1920"
     inkscape:window-height="1001"
     inkscape:window-x="-9"
     inkscape:window-y="-9"
     inkscape:window-maximized="1"
     inkscape:showpageshadow="2"
     inkscape:pagecheckerboard="0"
     inkscape:deskcolor="#d1d1d1" />
  <metadata
     id="metadata1363">
    <rdf:RDF>
      <cc:Work
         rdf:about="">
        <dc:format>image/svg+xml</dc:format>
        <dc:type
           rdf:resource="http://purl.org/dc/dcmitype/StillImage" />
      </cc:Work>
    </rdf:RDF>
  </metadata>
  <g
     inkscape:label="Layer 1"
     inkscape:groupmode="layer"
     id="layer1"
     transform="translate(-33.488689,-197.79258)">
    <path
       id="path1112"
       d="m 57.229235,203.9094 v 4.29994 h -2.361953 v -3.33092 c 0,-1.33239 -0.484487,-1.69578 -1.090128,-1.69578 -0.968993,0 -1.453501,0.66619 -1.453501,2.11969 v 2.90701 h -2.361932 v -9.81115 c 0,0 1.756312,0 1.877446,0 0.302809,0 0.484486,0.12118 0.484486,0.48453 0,0.121 0,3.45206 0,3.45206 h 0.06066 c 0.48451,-0.72675 1.271827,-1.15068 2.301388,-1.15068 1.816878,0 2.543629,1.33236 2.543629,2.7253 z m -12.53647,0.90845 c 0,-1.15069 0.787317,-1.87745 1.877444,-1.87745 0.363376,0 0.726751,0.0607 1.029561,0.18176 0.121094,0.0607 0.121094,0.0607 0.181745,0.0607 0,0 0,0 0.06066,0 0.121094,0 0.242242,-0.0607 0.242242,-0.24224 v -1.45351 c -0.484508,-0.24223 -1.090126,-0.36337 -1.756311,-0.36337 -2.301387,0 -3.997132,1.33237 -3.997132,3.5732 0,2.24082 1.695745,3.57319 3.997132,3.57319 0.605618,0 1.332368,-0.0607 1.877445,-0.30282 v -1.7563 c -0.423943,0.18174 -0.908451,0.36337 -1.453503,0.36337 -1.090126,0.0607 -2.059143,-0.66619 -2.059143,-1.75631 z M 68.49388,201.1841 c -0.969018,0 -1.877444,0.36338 -2.422519,1.33236 -0.363376,-0.90843 -1.15067,-1.33236 -2.119688,-1.33236 -1.029561,0 -1.756311,0.36338 -2.543629,1.15068 0,0 -0.181746,0.18174 -0.30281,0.18174 -0.06066,0 -0.181744,-0.0607 -0.242243,-0.0607 l -0.908451,-0.96899 c -0.06066,-0.0607 -0.181744,-0.12118 -0.242241,-0.12118 -0.181746,0 -0.363376,0.18175 -0.363376,0.36339 v 6.48019 h 2.301385 v -2.907 c 0,-1.4535 0.484487,-2.11969 1.332371,-2.11969 0.666185,0 0.908427,0.60563 0.908427,1.33238 v 3.69431 h 2.361953 v -2.907 c 0,-1.4535 0.484509,-2.11969 1.33237,-2.11969 0.666185,0 0.908451,0.60563 0.908451,1.33238 v 3.69431 h 2.361929 v -4.0577 c 0.06066,-1.81687 -0.363375,-2.96755 -2.361929,-2.96755 z m -27.858813,0.72674 v 5.75346 c 0,0.18173 -0.181746,0.36336 -0.363376,0.36336 -0.121095,0 -0.181744,-0.0607 -0.242244,-0.12117 l -0.363375,-0.36338 c -0.06066,-0.0607 -0.181746,-0.12118 -0.242241,-0.12118 -0.06066,0 -0.181744,0.0605 -0.242268,0.0605 -0.605617,0.54507 -1.211233,0.7873 -2.119686,0.7873 -1.998555,0 -3.573188,-1.57461 -3.573188,-3.57319 0,-1.99853 1.574633,-3.57318 3.573188,-3.57318 0.908453,0 1.514069,0.30281 2.119686,0.78731 0.06066,0.0607 0.181746,0.0607 0.242268,0.0607 0.06066,0 0.181746,-0.0607 0.242241,-0.121 l 0.363375,-0.36339 c 0.06066,-0.0607 0.181746,-0.121 0.242244,-0.121 0.181746,0.18174 0.363376,0.36337 0.363376,0.54507 z m -1.937989,2.90701 c 0,-0.90845 -0.666184,-1.57464 -1.514068,-1.57464 -0.847884,0 -1.51407,0.72675 -1.51407,1.57464 0,0.84787 0.666186,1.57462 1.51407,1.57462 0.847884,0 1.514068,-0.72675 1.514068,-1.57462 z m 49.661328,-2.90701 v 5.75346 c 0,0.18173 -0.181746,0.36336 -0.363376,0.36336 -0.121094,0 -0.181744,-0.0607 -0.242243,-0.12117 l -0.363375,-0.36338 c -0.06066,-0.0607 -0.181745,-0.12118 -0.242266,-0.12118 -0.06066,0 -0.181744,0.0605 -0.24224,0.0605 -0.605621,0.54507 -1.211262,0.7873 -2.119688,0.7873 -1.998579,0 -3.57319,-1.57461 -3.57319,-3.57319 0,-1.99853 1.574613,-3.57318 3.57319,-3.57318 0.847884,0 1.514067,0.30281 2.119688,0.78731 0.06066,0.0607 0.181744,0.0607 0.24224,0.0607 0.06066,0 0.181746,-0.0607 0.242266,-0.121 l 0.30281,-0.24225 c 0.06066,-0.0607 0.181744,-0.12117 0.242241,-0.12117 0.242267,0.0607 0.423943,0.24223 0.423943,0.42394 z m -1.938011,2.90701 c 0,-0.90845 -0.666184,-1.57464 -1.514045,-1.57464 -0.847884,0 -1.51407,0.72675 -1.51407,1.57464 0,0.84787 0.666186,1.57462 1.51407,1.57462 0.847861,0 1.514045,-0.72675 1.514045,-1.57462 z m -6.722439,0.24223 v 0.42396 h -4.723881 c 0.121094,0.90843 0.847884,1.33237 1.998553,1.33237 0.605642,0 1.332394,-0.12118 2.059144,-0.48448 v 1.69573 c -0.72675,0.30282 -1.635201,0.42395 -2.483062,0.42395 -2.240821,0 -3.936589,-1.33239 -3.936589,-3.57319 0,-2.24082 1.51407,-3.57322 3.633756,-3.57322 2.604195,-0.0607 3.452079,1.75633 3.452079,3.75488 z m -2.119686,-1.21125 c -0.06066,-0.60562 -0.484509,-1.15067 -1.332393,-1.15067 -0.787295,0 -1.150671,0.48448 -1.271802,1.15067 -0.06066,0.18176 0.06066,0.30284 0.242242,0.30284 h 2.059144 c 0.181746,0 0.302809,-0.0607 0.302809,-0.30284 z m 24.58841,-6.05625 c -1.69575,0 -3.33095,0.54507 -4.481638,1.57464 -0.121094,0.12117 -0.302813,0.18175 -0.48449,0.18175 -0.181746,0 -0.363376,-0.0607 -0.484505,-0.18175 l -0.787322,-0.78732 c -0.06066,-0.0607 -0.181744,-0.12101 -0.363374,-0.12101 -0.24224,0 -0.484481,0.18173 -0.484481,0.4845 v 11.74914 c 0,0.24226 0.181743,0.48451 0.484481,0.48451 0.121094,0 0.242268,-0.0607 0.363374,-0.12118 l 0.787322,-0.78732 c 0.121094,-0.12119 0.302806,-0.18174 0.484505,-0.18174 0.181744,0 0.363374,0.0607 0.48449,0.18174 1.150688,1.02955 2.785888,1.57461 4.481638,1.57461 3.876,0 7.02526,-3.14925 7.02526,-7.02524 0,-3.87603 -3.14926,-7.02528 -7.02526,-7.02528 z m -0.18175,2.66476 c 1.02956,0 2.05912,0.36337 2.78587,1.02956 0.0607,0.0607 0.18175,0.12118 0.30282,0.12118 0.12109,0 0.24224,-0.0607 0.3028,-0.12118 l 0.48451,-0.4845 c 0.0607,-0.0607 0.12109,-0.0607 0.18174,-0.0607 0.18175,0 0.30284,0.12118 0.30284,0.30283 v 7.26751 c 0,0.18175 -0.1211,0.30281 -0.30284,0.30281 -0.0606,0 -0.18174,-0.0607 -0.18174,-0.0607 l -0.48451,-0.4845 c -0.0607,-0.0607 -0.18174,-0.12118 -0.3028,-0.12118 -0.1211,0 -0.18175,0.0605 -0.30281,0.12118 -0.72676,0.66619 -1.69575,1.02956 -2.78587,1.02956 -2.422524,0 -4.36051,-1.93798 -4.36051,-4.36051 -0.06066,-2.54363 1.937986,-4.48161 4.36051,-4.48161 z m 0.0607,6.23795 c 0.96902,0 1.75634,-0.84789 1.75634,-1.87744 0,-1.02956 -0.78732,-1.87745 -1.75634,-1.87745 -0.96898,0 -1.7563,0.84789 -1.7563,1.87745 0,1.02955 0.78732,1.87744 1.7563,1.87744 z"
       class="st8"
       inkscape:connector-curvature="0"
       style="fill:#cc0000;stroke-width:0.605627" />
  </g>
</svg>
