<?xml version="1.0" encoding="UTF-8"?>
<svg xmlns="http://www.w3.org/2000/svg" xmlns:xlink="http://www.w3.org/1999/xlink" width="240px" height="91px" viewBox="0 0 239 91" version="1.1">
<g id="surface1">
<path style=" stroke:none;fill-rule:nonzero;fill:rgb(92.156863%,0%,9.019608%);fill-opacity:1;" d="M 188.039062 42.328125 C 188.039062 43.027344 188.023438 43.726562 188.023438 44.421875 L 188.023438 89.003906 L 171.21875 89.003906 L 171.21875 12.816406 C 171.421875 12.816406 171.625 12.792969 171.828125 12.792969 C 176.304688 12.792969 180.808594 12.792969 185.296875 12.792969 C 185.675781 12.761719 186.042969 12.933594 186.265625 13.242188 C 198.078125 27.964844 209.894531 42.679688 221.722656 57.394531 C 221.839844 57.539062 221.964844 57.675781 222.203125 57.945312 L 222.203125 12.832031 L 239.007812 12.832031 L 239.007812 89.046875 L 238.4375 89.046875 C 234.414062 89.046875 230.386719 89.046875 226.359375 89.046875 C 226.007812 89.074219 225.664062 88.914062 225.460938 88.625 C 216.546875 77.527344 207.628906 66.433594 198.710938 55.34375 C 195.207031 50.984375 191.695312 46.625 188.171875 42.273438 L 188.042969 42.15625 Z M 188.039062 42.328125 "/>
<path style=" stroke:none;fill-rule:nonzero;fill:rgb(92.156863%,0%,9.019608%);fill-opacity:1;" d="M 122.835938 90.960938 C 113.683594 90.695312 104.175781 86.886719 96.460938 79.027344 C 88.679688 71.089844 84.777344 61.464844 84.9375 50.308594 C 85.09375 39.496094 89.089844 30.222656 96.683594 22.59375 C 103.523438 15.726562 111.824219 11.824219 121.476562 11.101562 C 133.9375 10.175781 144.667969 14.195312 153.386719 23.179688 C 160.886719 30.894531 164.59375 40.296875 164.578125 51.050781 C 164.542969 72.929688 146.949219 90.855469 122.835938 90.960938 Z M 147.6875 52.761719 C 147.6875 44.539062 145.429688 39.125 141.023438 34.660156 C 136.621094 30.195312 131.132812 27.914062 124.84375 27.863281 C 118.558594 27.816406 113.066406 30.074219 108.617188 34.546875 C 103.40625 39.78125 101.109375 46.1875 101.90625 53.554688 C 102.417969 58.652344 104.6875 63.410156 108.320312 67.007812 C 113.460938 72.183594 119.695312 74.578125 126.980469 73.914062 C 137.914062 72.914062 147.863281 63.433594 147.6875 52.761719 Z M 147.6875 52.761719 "/>
<path style=" stroke:none;fill-rule:nonzero;fill:rgb(92.156863%,0%,9.019608%);fill-opacity:1;" d="M 91.175781 89.046875 L 90.488281 89.046875 C 84.792969 89.046875 79.101562 89.046875 73.410156 89.046875 C 73.042969 89.101562 72.6875 88.878906 72.582031 88.519531 C 68.105469 77.683594 63.613281 66.851562 59.113281 56.027344 C 57.960938 53.265625 56.777344 50.507812 55.617188 47.738281 C 54.542969 45.179688 53.480469 42.625 52.421875 40.066406 C 50.226562 34.726562 48.027344 29.382812 45.835938 24.039062 C 45.761719 23.871094 45.667969 23.710938 45.527344 23.445312 C 40.730469 35.039062 35.972656 46.5 31.175781 58.054688 L 31.941406 58.054688 C 37.914062 58.054688 43.882812 58.054688 49.839844 58.054688 C 50.234375 57.996094 50.605469 58.242188 50.710938 58.628906 C 52.804688 63.464844 54.914062 68.292969 57.035156 73.121094 C 57.117188 73.308594 57.1875 73.503906 57.300781 73.789062 L 56.496094 73.789062 C 46.132812 73.789062 35.761719 73.785156 25.382812 73.773438 C 24.773438 73.773438 24.554688 73.996094 24.347656 74.492188 C 22.421875 79.171875 20.476562 83.839844 18.550781 88.511719 C 18.410156 88.851562 18.289062 89.058594 17.855469 89.058594 C 11.996094 89.039062 6.132812 89.039062 0.273438 89.058594 C 0.210938 89.058594 0.148438 89.058594 0.0117188 89.035156 C 0.0585938 88.855469 0.121094 88.679688 0.1875 88.503906 C 6.203125 74.589844 12.21875 60.675781 18.238281 46.761719 C 24.871094 31.421875 31.5 16.070312 38.125 0.710938 C 38.339844 0.214844 38.578125 0.0351562 39.132812 0.0390625 C 43.429688 0.0664062 47.734375 0.0664062 52.042969 0.0390625 C 52.605469 0.0390625 52.832031 0.234375 53.046875 0.722656 C 59.097656 14.757812 65.160156 28.792969 71.230469 42.820312 C 77.785156 57.988281 84.34375 73.164062 90.898438 88.34375 C 90.972656 88.550781 91.058594 88.761719 91.175781 89.046875 Z M 91.175781 89.046875 "/>
<path style=" stroke:none;fill-rule:nonzero;fill:rgb(97.254902%,74.509804%,76.862745%);fill-opacity:1;" d="M 188.039062 42.328125 L 188.054688 42.15625 L 188.183594 42.273438 Z M 188.039062 42.328125 "/>
</g>
</svg>
