<svg xmlns:xlink="http://www.w3.org/1999/xlink" viewBox="0 0 160 77" fill="none" xmlns="http://www.w3.org/2000/svg" width="165"  height="79" >
    <g clip-path="url(#clip0_3880_18850)">
        <rect width="160" height="77" fill="white" />
        <path d="M160 71.7803H0V77.0022H160V71.7803Z" fill="#4AB286" />
        <path
            d="M130.543 45.1668C131.903 45.1668 133.02 44.113 133.02 42.7118C133.02 41.3476 131.903 40.2197 130.543 40.2197C129.191 40.2197 128.105 41.3476 128.105 42.7118C128.105 44.113 129.191 45.1668 130.543 45.1668Z"
            fill="#4AB286" />
        <path
            d="M96.8834 40.2197C95.5287 40.2197 94.4375 41.3476 94.4375 42.7118C94.4375 44.113 95.5287 45.1668 96.8834 45.1668C98.241 45.1668 99.3633 44.113 99.3633 42.7118C99.3633 41.3476 98.241 40.2197 96.8834 40.2197Z"
            fill="black" />
        <path
            d="M122.322 29.5481V26.5918C119.261 26.5918 116.708 27.6427 115.421 30.525H115.347V26.982H109.223V29.588H112.207V42.3616H109.223V44.9704H118.873V42.3616H115.537V36.2069C115.537 31.6557 116.824 29.9383 122.322 29.5481Z"
            fill="black" />
        <path
            d="M61.2618 42.7118C61.2618 41.3476 60.1366 40.2197 58.7734 40.2197C57.4271 40.2197 56.3359 41.3476 56.3359 42.7118C56.3359 44.113 57.4271 45.1668 58.7734 45.1668C60.1366 45.1668 61.2618 44.113 61.2618 42.7118Z"
            fill="black" />
        <path
            d="M48.0217 29.588V26.982H42.0528V29.7075H41.9422C40.7038 27.916 38.1501 26.5918 35.8515 26.5918C30.3192 26.5918 26.9805 30.6787 26.9805 35.9363C26.9805 41.1967 30.3192 45.3576 35.8515 45.3576C38.1501 45.3576 40.7038 44.0732 41.9422 42.2418H42.0528V44.9704H48.0217V42.3614H45.0031V29.588H48.0217ZM36.1689 42.7117C32.0963 42.7117 30.3192 39.4024 30.3192 35.9363C30.3192 32.5841 32.0963 29.2347 36.1689 29.2347C39.0711 29.2347 41.9848 31.6556 41.9848 35.9363C41.9848 40.2198 39.0711 42.7117 36.1689 42.7117Z"
            fill="black" />
        <path
            d="M86.037 39.8296C86.037 32.08 73.3114 36.2069 73.3114 31.6898C73.3114 29.6706 75.1791 29.2348 77.455 29.2348C78.5122 29.2348 79.4815 29.5481 80.2892 30.0949C81.1451 30.6389 81.7715 31.4563 82.0691 32.4702H84.8324V26.982H82.2335V28.6538C80.7228 27.3722 78.7871 26.5918 76.806 26.5918C73.5183 26.5918 70.293 28.0329 70.293 31.7724C70.293 40.3765 83.01 35.512 83.01 40.103C83.01 42.5552 80.173 42.7119 78.6255 42.7119C76.4914 42.7119 73.711 41.735 72.8919 39.1319H70.293V44.9704H72.8919V43.179C74.4026 44.8963 76.8428 45.3577 79.0507 45.3577C82.6161 45.3577 86.037 43.8426 86.037 39.8296Z"
            fill="black" />
    </g>
    <defs>
        <clipPath id="clip0_3880_18850">
            <rect width="160" height="77" fill="white" />
        </clipPath>
    </defs>
</svg>
    