<svg xmlns="http://www.w3.org/2000/svg" width="200" height="30" viewBox="0 0 200 30">
  <g fill="none" fill-rule="evenodd">
    <path fill="#25408F" d="M127.148,10.526 L127.148,8.792 C127.148,5.782 125.247,4.442 120.974,4.442 L109.42,4.442 L109.42,25.375 L113.115,25.375 L113.115,8.062 L120.779,8.062 C122.454,8.062 123.451,8.829 123.451,10.115 L123.451,11.284 C123.451,12.569 122.454,13.337 120.779,13.337 L116.261,13.337 L116.261,13.339 C115.334,13.355 114.586,14.115 114.586,15.052 C114.586,15.985 115.334,16.745 116.261,16.761 L116.261,16.766 L120.468,16.766 C121.8,16.766 122.874,17.973 123.195,19.836 C123.195,19.836 124.069,24.694 124.191,25.375 L128.11,25.375 C127.742,23.653 126.66,18.574 126.66,18.567 C126.349,17.019 125.63,15.985 124.597,15.571 L123.333,15.072 L124.632,14.675 C126.37,14.139 127.148,12.861 127.148,10.526 L127.148,10.526 Z M102.647,25.584 L106.115,25.584 L106.115,8.946 C106.115,5.672 104.436,3.794 101.514,3.794 C99.191,3.794 97.535,5.109 96.963,7.406 C96.963,7.406 95.314,14.06 95.312,14.06 C95.252,14.305 95.065,15.051 94.351,15.051 C93.641,15.051 93.454,14.305 93.392,14.06 L91.743,7.406 C91.173,5.109 89.517,3.794 87.192,3.794 C84.252,3.794 82.565,5.672 82.565,8.946 L82.565,25.584 L86.033,25.584 L86.033,9.424 C86.033,8.445 86.505,7.863 87.302,7.863 C88.281,7.863 88.484,8.654 88.72,9.573 L90.071,14.588 C90.915,17.7 92.235,19.09 94.351,19.09 C96.466,19.09 97.832,17.66 98.639,14.588 L99.986,9.576 C100.226,8.654 100.428,7.863 101.407,7.863 C101.777,7.863 102.647,8.015 102.647,9.424 L102.647,25.584 Z M70.309,25.374 L79.441,25.374 L79.441,21.724 L70.747,21.724 C68.758,21.724 67.668,20.622 67.668,18.632 L67.668,11.186 C67.668,9.172 68.758,8.063 70.747,8.063 L79.441,8.063 L79.441,4.443 L70.309,4.443 C66.281,4.443 63.969,6.763 63.969,10.811 L63.969,18.978 C63.969,22.983 66.338,25.374 70.309,25.374 L70.309,25.374 Z M60.385,18.978 L60.385,10.811 C60.385,6.822 58.002,4.443 54.012,4.443 L41.771,4.443 L41.771,25.374 L54.012,25.374 C58.002,25.374 60.385,22.983 60.385,18.978 L60.385,18.978 Z M56.684,18.631 C56.684,20.622 55.579,21.723 53.574,21.723 L45.474,21.723 L45.474,8.062 L53.574,8.062 C55.55,8.062 56.684,9.2 56.684,11.186 L56.684,18.631 Z M37.469,25.363 C37.732,25.387 37.989,25.397 38.248,25.403 L38.248,22.41 C38.075,22.405 37.901,22.399 37.73,22.384 C33.354,22.003 30.123,18.134 30.504,13.745 L30.677,11.761 C30.796,10.391 30.352,9.101 29.534,8.124 C28.715,7.146 27.525,6.483 26.161,6.362 C24.884,6.254 23.677,6.632 22.729,7.354 C22.66,7.405 22.599,7.452 22.534,7.511 C21.558,8.328 20.895,9.521 20.779,10.892 L20.346,15.859 C20.154,18.051 19.095,19.959 17.536,21.268 C14.731,23.63 11.386,24.922 7.993,25.187 C9.067,25.662 10.236,25.973 11.474,26.087 C14.481,26.346 17.308,25.365 19.453,23.562 C21.593,21.757 23.054,19.132 23.313,16.118 L23.745,11.151 C23.795,10.604 24.059,10.128 24.449,9.801 C24.838,9.474 25.354,9.294 25.898,9.34 C26.447,9.388 26.919,9.654 27.25,10.045 C27.577,10.435 27.758,10.954 27.706,11.5 L27.534,13.486 C27.009,19.52 31.456,24.837 37.469,25.363 L37.469,25.363 Z M37.989,19.408 C38.072,19.413 38.162,19.422 38.248,19.422 L38.248,16.427 C37.153,16.332 36.342,15.365 36.442,14.267 L36.616,12.283 C36.87,9.385 35.969,6.659 34.307,4.542 C32.765,4.221 31.179,4.162 29.615,4.373 C30.456,4.846 31.202,5.467 31.818,6.203 C33.124,7.763 33.836,9.83 33.646,12.02 L33.476,14.008 C33.233,16.75 35.252,19.169 37.989,19.408 L37.989,19.408 Z M20.615,5.219 C23.422,2.858 26.77,1.566 30.159,1.307 C29.083,0.827 27.914,0.516 26.679,0.407 C23.669,0.14 20.843,1.129 18.703,2.929 C16.559,4.733 15.101,7.354 14.837,10.372 L14.408,15.337 C14.31,16.431 13.346,17.246 12.253,17.148 C11.158,17.054 10.35,16.088 10.445,14.989 L10.713,11.913 C11.241,5.88 6.79,0.561 0.777,0.036 C0.518,0.014 0.257,0.004 -3.35376171e-12,-6.39488462e-14 L-3.35376171e-12,2.986 C0.171,2.991 0.347,3 0.52,3.014 C4.892,3.399 8.129,7.265 7.742,11.652 L7.478,14.73 C7.238,17.467 9.26,19.886 11.994,20.125 C13.267,20.239 14.474,19.854 15.422,19.137 C15.488,19.088 15.553,19.035 15.619,18.98 C16.595,18.16 17.256,16.968 17.374,15.597 L17.807,10.633 C18.002,8.44 19.059,6.533 20.615,5.219 L20.615,5.219 Z M0.261,5.993 C0.171,5.986 0.083,5.977 -3.35376171e-12,5.977 L-3.35376171e-12,8.972 C1.095,9.068 1.903,10.034 1.808,11.134 L1.539,14.206 C1.285,17.102 2.183,19.831 3.846,21.947 C5.387,22.27 6.974,22.327 8.54,22.116 C7.697,21.643 6.948,21.021 6.338,20.287 C5.029,18.724 4.317,16.657 4.509,14.467 L4.778,11.39 C5.012,8.649 2.993,6.236 0.261,5.993 L0.261,5.993 Z"/>
    <path fill="#63A537" d="M198.0078,9.8327 L198.0078,6.4827 L199.2088,6.4827 L199.2088,5.5307 L198.0078,5.5307 L198.0078,3.6467 L196.7588,3.6467 L196.7588,5.5307 L196.0488,5.5307 L196.0488,6.4827 L196.7588,6.4827 L196.7588,9.8947 C196.7588,10.7817 197.2988,11.6137 198.4598,11.6137 L199.2088,11.6137 L199.2088,10.5527 L198.6928,10.5527 C198.2268,10.5527 198.0078,10.2817 198.0078,9.8327 L198.0078,9.8327 Z M191.5308,7.1827 C191.5308,6.7137 191.9078,6.3847 192.6588,6.3847 C193.2438,6.3847 193.7948,6.5067 194.1858,6.8367 L194.9698,6.0407 C194.3958,5.5417 193.5998,5.3497 192.6658,5.3497 C191.3678,5.3497 190.3288,6.0287 190.3288,7.2377 C190.3288,8.3257 191.0008,8.8527 192.1668,8.9507 L193.1578,9.0357 C193.7558,9.0857 193.9918,9.3547 193.9918,9.7707 C193.9918,10.3567 193.3898,10.6257 192.6278,10.6257 C192.0168,10.6257 191.3468,10.4947 190.8438,9.9797 L190.0188,10.7967 C190.7588,11.5197 191.6138,11.6877 192.6278,11.6877 C194.1148,11.6877 195.2168,11.0197 195.2168,9.7247 C195.2168,8.6207 194.5308,8.0697 193.3658,7.9757 L192.3858,7.8837 C191.7258,7.8267 191.5308,7.5437 191.5308,7.1827 L191.5308,7.1827 Z M188.1708,25.7167 L189.8128,25.7167 L189.8128,20.5217 C189.8128,19.6097 189.6178,18.8367 188.9938,18.2327 C188.5088,17.7677 187.8198,17.4907 186.9868,17.4907 C186.1588,17.4907 185.3748,17.7997 184.8098,18.4077 L184.8098,17.5887 L183.2018,17.5887 L183.2018,25.7167 L184.8438,25.7167 L184.8438,20.7647 C184.8438,19.5157 185.6128,18.9507 186.5328,18.9507 C187.4498,18.9507 188.1708,19.4957 188.1708,20.7647 L188.1708,25.7167 Z M187.4488,11.6137 L188.7008,11.6137 L188.7008,7.6537 C188.7008,6.9547 188.5518,6.3737 188.0758,5.9077 C187.7088,5.5547 187.1828,5.3497 186.5448,5.3497 C185.9198,5.3497 185.3208,5.5797 184.8908,6.0407 L184.8908,5.4187 L183.6668,5.4187 L183.6668,11.6137 L184.9118,11.6137 L184.9118,7.8397 C184.9118,6.8877 185.5008,6.4567 186.2018,6.4567 C186.9008,6.4567 187.4488,6.8747 187.4488,7.8397 L187.4488,11.6137 Z M177.9828,8.8777 L182.0138,8.8777 L182.0138,8.3257 C182.0138,6.5667 181.0468,5.3507 179.3798,5.3507 C177.7858,5.3507 176.7478,6.5067 176.7478,8.5147 C176.7478,10.8727 177.9828,11.6877 179.5408,11.6877 C180.6288,11.6877 181.2308,11.3597 181.8668,10.7267 L181.0688,9.9787 C180.6288,10.4187 180.2608,10.6157 179.5628,10.6157 C178.5478,10.6157 177.9828,9.9397 177.9828,8.8777 L177.9828,8.8777 Z M177.9828,8.0137 C177.9968,7.6327 178.0158,7.4497 178.1448,7.1667 C178.3388,6.7017 178.7908,6.3847 179.3798,6.3847 C179.9668,6.3847 180.4058,6.7017 180.6028,7.1667 C180.7268,7.4497 180.7648,7.6327 180.7788,8.0137 L177.9828,8.0137 Z M177.5728,17.4907 C176.4648,17.4907 175.6738,17.9087 175.1418,18.4577 C174.3698,19.2597 174.1788,20.2847 174.1788,21.6437 C174.1788,23.0257 174.3698,24.0497 175.1418,24.8507 C175.6738,25.3967 176.4648,25.8117 177.5728,25.8117 C178.6838,25.8117 179.4848,25.3967 180.0158,24.8507 C180.7858,24.0497 180.9838,23.0257 180.9838,21.6437 C180.9838,20.2847 180.7858,19.2597 180.0158,18.4577 C179.4848,17.9087 178.6838,17.4907 177.5728,17.4907 L177.5728,17.4907 Z M176.3838,19.4147 C176.6858,19.1107 177.0868,18.9517 177.5728,18.9517 C178.0538,18.9517 178.4728,19.1107 178.7788,19.4147 C179.2758,19.9107 179.3408,20.7657 179.3408,21.6437 C179.3408,22.5267 179.2758,23.3797 178.7788,23.8737 C178.4728,24.1787 178.0538,24.3587 177.5728,24.3587 C177.0868,24.3587 176.6858,24.1787 176.3838,23.8737 C175.8828,23.3797 175.8188,22.5267 175.8188,21.6437 C175.8188,20.7657 175.8828,19.9107 176.3838,19.4147 L176.3838,19.4147 Z M173.7928,4.1977 L175.1158,4.1977 L175.1158,2.8787 L173.7928,2.8787 L173.7928,4.1977 Z M170.3978,25.7167 L172.0368,25.7167 L172.0368,20.5217 C172.0368,19.6097 171.7948,18.8367 171.1698,18.2327 C170.6858,17.7677 169.9458,17.4907 169.1128,17.4907 C168.0328,17.4907 167.2098,17.8777 166.5498,18.6817 C166.0398,17.8957 165.2508,17.4907 164.2358,17.4907 C163.4158,17.4907 162.6118,17.8117 162.0648,18.4077 L162.0648,17.5887 L160.4538,17.5887 L160.4538,25.7167 L162.0978,25.7167 L162.0978,20.7647 C162.0978,19.5157 162.8708,18.9507 163.7848,18.9507 C164.7038,18.9507 165.4268,19.4957 165.4268,20.7647 L165.4268,25.7167 L167.0708,25.7167 L167.0708,20.6847 C167.0708,19.5157 167.8708,18.9507 168.7558,18.9507 C169.6738,18.9507 170.3978,19.4957 170.3978,20.7647 L170.3978,25.7167 Z M170.6208,11.6137 L171.8448,11.6137 L171.8448,2.9127 L170.5978,2.9127 L170.5978,6.0407 C170.1438,5.5067 169.6308,5.3497 168.9678,5.3497 C168.3438,5.3497 167.8088,5.5547 167.4618,5.8947 C166.8368,6.5197 166.7638,7.5727 166.7638,8.5147 C166.7638,9.4517 166.8368,10.5177 167.4618,11.1417 C167.8088,11.4807 168.3548,11.6877 168.9798,11.6877 C169.6548,11.6877 170.1558,11.5197 170.6208,10.9577 L170.6208,11.6137 Z M170.5978,8.5147 C170.5978,9.6117 170.4358,10.5757 169.3098,10.5757 C168.1818,10.5757 168.0138,9.6117 168.0138,8.5147 C168.0138,7.4107 168.1818,6.4567 169.3098,6.4567 C170.4358,6.4567 170.5978,7.4107 170.5978,8.5147 L170.5978,8.5147 Z M163.8488,11.6137 L165.0728,11.6137 L165.0728,5.4187 L163.8228,5.4187 L163.8228,9.1957 C163.8228,10.1487 163.2358,10.5757 162.5378,10.5757 C161.8408,10.5757 161.2888,10.1597 161.2888,9.1957 L161.2888,5.4187 L160.0408,5.4187 L160.0408,9.3757 C160.0408,10.0747 160.1828,10.6667 160.6658,11.1297 C161.0318,11.4807 161.5568,11.6877 162.1978,11.6877 C162.8178,11.6877 163.4218,11.4547 163.8488,10.9937 L163.8488,11.6137 Z M154.4158,8.8777 L158.4468,8.8777 L158.4468,8.3257 C158.4468,6.5667 157.4808,5.3507 155.8128,5.3507 C154.2188,5.3507 153.1798,6.5067 153.1798,8.5147 C153.1798,10.8727 154.4158,11.6877 155.9748,11.6877 C157.0638,11.6877 157.6638,11.3597 158.2998,10.7267 L157.5058,9.9787 C157.0638,10.4187 156.6958,10.6157 155.9978,10.6157 C154.9818,10.6157 154.4158,9.9397 154.4158,8.8777 L154.4158,8.8777 Z M154.4158,8.0137 C154.4298,7.6327 154.4548,7.4497 154.5768,7.1667 C154.7698,6.7017 155.2238,6.3847 155.8128,6.3847 C156.4038,6.3847 156.8438,6.7017 157.0388,7.1667 C157.1598,7.4497 157.1998,7.6327 157.2118,8.0137 L154.4158,8.0137 Z M155.0978,17.4907 C154.2778,17.4907 153.4898,17.7997 152.9308,18.4077 L152.9308,17.5887 L151.3208,17.5887 L151.3208,25.7167 L152.9598,25.7167 L152.9598,20.7647 C152.9598,19.5157 153.7318,18.9507 154.6488,18.9507 C155.5658,18.9507 156.2878,19.4957 156.2878,20.7647 L156.2878,25.7167 L157.9268,25.7167 L157.9268,20.5217 C157.9268,19.6097 157.7368,18.8367 157.1128,18.2327 C156.6268,17.7677 155.9358,17.4907 155.0978,17.4907 L155.0978,17.4907 Z M150.2318,4.1977 L151.5508,4.1977 L151.5508,2.8787 L150.2318,2.8787 L150.2318,4.1977 Z M148.1228,11.6137 L148.8948,11.6137 L148.8948,10.5527 L148.3418,10.5527 C147.8398,10.5527 147.6698,10.3077 147.6698,9.8327 L147.6698,2.9127 L146.4198,2.9127 L146.4198,9.9017 C146.4198,10.8227 146.9328,11.6137 148.1228,11.6137 L148.1228,11.6137 Z M147.0258,15.9867 L148.7598,15.9867 L148.7598,14.2527 L147.0258,14.2527 L147.0258,15.9867 Z M146.1898,27.6457 L145.4628,27.6457 L145.4628,29.0357 L146.4778,29.0357 C148.0348,29.0357 148.7128,27.9977 148.7128,26.7927 L148.7128,17.5887 L147.0728,17.5887 L147.0728,26.6987 C147.0728,27.3227 146.8478,27.6457 146.1898,27.6457 L146.1898,27.6457 Z M142.7768,15.9867 L144.5148,15.9867 L144.5148,14.2527 L142.7768,14.2527 L142.7768,15.9867 Z M143.2228,11.6137 L144.4718,11.6137 L144.4718,5.4187 L143.2228,5.4187 L143.2228,11.6137 Z M143.1848,4.1977 L144.5098,4.1977 L144.5098,2.8787 L143.1848,2.8787 L143.1848,4.1977 Z M140.0508,11.6137 L141.3008,11.6137 L141.3008,7.6537 C141.3008,6.9547 141.1158,6.3737 140.6388,5.9077 C140.2748,5.5547 139.7088,5.3497 139.0728,5.3497 C138.2488,5.3497 137.6268,5.6377 137.1218,6.2517 C136.7328,5.6517 136.1348,5.3497 135.3598,5.3497 C134.7378,5.3497 134.1218,5.5877 133.7068,6.0407 L133.7068,5.4187 L132.4828,5.4187 L132.4828,11.6137 L133.7298,11.6137 L133.7298,7.8397 C133.7298,6.8877 134.3188,6.4567 135.0178,6.4567 C135.7158,6.4567 136.2628,6.8747 136.2628,7.8397 L136.2628,11.6137 L137.5168,11.6137 L137.5168,7.7777 C137.5168,6.8877 138.1268,6.4567 138.8018,6.4567 C139.5008,6.4567 140.0508,6.8747 140.0508,7.8397 L140.0508,11.6137 Z M136.9208,14.3007 L132.4828,14.3007 L132.4828,25.7167 L134.2198,25.7167 L134.2198,20.9067 L136.3908,20.9067 L138.8068,25.7167 L140.8308,25.7167 L138.1908,20.6717 C139.4808,20.3147 140.4768,19.2727 140.4768,17.6387 C140.4768,15.6997 139.0908,14.3007 136.9208,14.3007 L136.9208,14.3007 Z M136.7948,15.8587 C137.9518,15.8587 138.7398,16.5307 138.7398,17.6547 C138.7398,18.7777 137.9518,19.4367 136.7948,19.4367 L134.2198,19.4367 L134.2198,15.8587 L136.7948,15.8587 Z M142.8288,25.7187 L144.4678,25.7187 L144.4678,17.5887 L142.8288,17.5887 L142.8288,25.7187 Z M150.2668,11.6137 L151.5158,11.6137 L151.5158,5.4187 L150.2668,5.4187 L150.2668,11.6137 Z M173.8338,11.6137 L175.0808,11.6137 L175.0808,5.4187 L173.8338,5.4187 L173.8338,11.6137 Z M192.8678,18.2147 C192.0488,19.0317 191.9538,20.4097 191.9538,21.6437 C191.9538,22.8807 192.0488,24.2757 192.8678,25.0957 C193.3218,25.5407 194.0438,25.8117 194.8648,25.8117 C195.7518,25.8117 196.4098,25.5917 197.0178,24.8507 L197.0178,25.7167 L198.6288,25.7167 L198.6288,14.3007 L196.9868,14.3007 L196.9868,18.4077 C196.3908,17.7027 195.7158,17.4907 194.8488,17.4907 C194.0248,17.4907 193.3218,17.7677 192.8678,18.2147 L192.8678,18.2147 Z M193.5918,21.6437 C193.5918,20.2057 193.8178,18.9507 195.2978,18.9507 C196.7778,18.9507 196.9868,20.2057 196.9868,21.6437 C196.9868,23.0847 196.7778,24.3587 195.2978,24.3587 C193.8178,24.3587 193.5918,23.0847 193.5918,21.6437 L193.5918,21.6437 Z"/>
  </g>
</svg>
