<?xml version="1.0" encoding="utf-8"?>
<!-- Generator: Adobe Illustrator 26.3.1, SVG Export Plug-In . SVG Version: 6.00 Build 0)  -->
<svg version="1.1" id="Laag_1" xmlns="http://www.w3.org/2000/svg" xmlns:xlink="http://www.w3.org/1999/xlink" x="0px" y="0px"
	 viewBox="0 0 314 75.8" style="enable-background:new 0 0 314 75.8;" xml:space="preserve">
<style type="text/css">
	.st0{fill-rule:evenodd;clip-rule:evenodd;fill:#00742B;}
</style>
<g>
	<path class="st0" d="M226.5,1.1l13.4,33.1l13.4-33.1c0.3-0.7,0.9-1.1,1.7-1.1h28.2c0.7,0,1.4,0.4,1.7,1.1l29.1,72.2
		c0.5,1.2-0.4,2.4-1.6,2.4h-29.7c-0.7,0-1.4-0.4-1.7-1.1l-13.4-33.2l-13.4,33.2c-0.3,0.7-0.9,1.1-1.7,1.1h-25.2
		c-0.7,0-1.4-0.4-1.7-1.1l-13.4-33.2l-13.4,33.2c-0.3,0.7-0.9,1.1-1.7,1.1h-29.7c-1.3,0-2.1-1.3-1.7-2.4L195,1.1
		c0.3-0.7,0.9-1.1,1.6-1.1h28.2C225.6,0,226.2,0.4,226.5,1.1 M80.4,1.1l12.3,30.6c0.5,1.2-0.4,2.4-1.7,2.4H60.2L76,73.3
		c0.5,1.2-0.4,2.4-1.7,2.4H18.5c-1.3,0-2.1-1.3-1.7-2.4l15.8-39.2H1.8c-1.3,0-2.1-1.3-1.7-2.4L12.5,1.1C12.7,0.4,13.4,0,14.1,0h64.6
		C79.4,0,80.1,0.4,80.4,1.1 M124.4,1.1l13.4,33.2l13.4-33.2c0.3-0.7,0.9-1.1,1.7-1.1h29.7c1.3,0,2.1,1.3,1.7,2.4l-29.1,72.2
		c-0.3,0.7-0.9,1.1-1.7,1.1h-31.1c-0.7,0-1.4-0.4-1.7-1.1L91.4,2.4C90.9,1.3,91.8,0,93.1,0h29.7C123.4,0,124.1,0.4,124.4,1.1"/>
</g>
</svg>
