<?xml version="1.0" encoding="UTF-8"?>
<svg enable-background="new 0 0 75 63.3" version="1.1" viewBox="0 0 75 63.3" xml:space="preserve" xmlns="http://www.w3.org/2000/svg">
<style type="text/css">
	.st0{fill:#0078D2;}
</style>
  <title>uwvLogo2RGB</title>
  <path class="st0" d="m75 16.9c0-3.3-1.1-6.4-2.9-9.1-8-11.5-30-10.1-49.1 3.1s-28 33.2-20 44.7 29.9 10 49-3c0.1-0.1 0-0.2-0.1-0.1-10.6 6.1-19.9 6.1-24 0s0.2-16.4 9.2-22.3c3.1-2.1 6.5-3.6 10.2-4.4l-1.2 6c-0.1 0.2 0 0.5 0.2 0.6s0.5 0.1 0.7 0l18.5-10.1c0.2-0.1 0.4-0.3 0.4-0.6 0.1-0.2 0-0.5-0.2-0.6l-14.5-9.9c-0.2-0.2-0.5-0.2-0.7-0.1s-0.4 0.3-0.4 0.6l-0.9 4.5c-6.3 0.6-12.2 2.8-17.3 6.4-12.4 8.3-17.9 21.7-12.3 30 1.5 2.2 3.7 3.8 6.1 4.8l0.4 0.1v0.1c-4.2-0.6-8-2.8-10.4-6.3-6.9-9.9 0.3-26.8 16-37.6s34-11.6 40.9-1.7c1.1 1.5 1.8 3.1 2.2 4.9v0.1c0 0.1 0.2 0.1 0.2-0.1"/>
  <path class="st0" d="m40.6 49.4v-1c-0.7 1.2-2 1.9-3.3 1.8-1.4 0-3.1-0.9-3.1-4.2v-6.7l2.3-0.4v7c-0.1 0.7 0.1 1.4 0.6 1.9 0.9 0.8 2.5 0.3 3.5-1.5v-7.1l2.3-0.4v11.2h-1.6c-0.5 0-0.8-0.2-0.7-0.6-0.1 0-0.1 0 0 0"/>
  <path class="st0" d="M65.6,46.9l2.6-7.9h2.3l-3.9,10.9V50h-1.8c-0.3,0-0.5-0.2-0.6-0.4L60.5,39h2.5L65.6,46.9z"/>
  <path class="st0" d="M51.9,42l-2.5,8h-1.8c-0.3,0-0.5-0.2-0.6-0.4L44,39h2.5l2,7.6l2.4-7.6h2.2l2.4,7.6l2-7.6h2.3l-3.1,11H55  c-0.2,0-0.5-0.1-0.6-0.3L51.9,42z"/>
</svg>
