<?xml version="1.0" encoding="UTF-8" standalone="no"?>
<!-- Created with Inkscape (http://www.inkscape.org/) -->

<svg
   xmlns:dc="http://purl.org/dc/elements/1.1/"
   xmlns:cc="http://creativecommons.org/ns#"
   xmlns:rdf="http://www.w3.org/1999/02/22-rdf-syntax-ns#"
   xmlns:svg="http://www.w3.org/2000/svg"
   xmlns="http://www.w3.org/2000/svg"
   xmlns:sodipodi="http://sodipodi.sourceforge.net/DTD/sodipodi-0.dtd"
   xmlns:inkscape="http://www.inkscape.org/namespaces/inkscape"
   width="255.99998"
   height="32.999989"
   viewBox="0 0 67.733329 8.7312469"
   version="1.1"
   id="svg38"
   inkscape:version="0.92.0 r15299"
   sodipodi:docname="de volksbank.svg">
  <defs
     id="defs32" />
  <sodipodi:namedview
     id="base"
     pagecolor="#ffffff"
     bordercolor="#666666"
     borderopacity="1.0"
     inkscape:pageopacity="0.0"
     inkscape:pageshadow="2"
     inkscape:zoom="3.5314962"
     inkscape:cx="126.99999"
     inkscape:cy="15.500016"
     inkscape:document-units="mm"
     inkscape:current-layer="layer1"
     showgrid="false"
     fit-margin-top="0"
     fit-margin-left="0"
     fit-margin-right="0"
     fit-margin-bottom="0"
     units="px"
     inkscape:window-width="1280"
     inkscape:window-height="744"
     inkscape:window-x="-4"
     inkscape:window-y="-4"
     inkscape:window-maximized="1" />
  <metadata
     id="metadata35">
    <rdf:RDF>
      <cc:Work
         rdf:about="">
        <dc:format>image/svg+xml</dc:format>
        <dc:type
           rdf:resource="http://purl.org/dc/dcmitype/StillImage" />
        <dc:title></dc:title>
      </cc:Work>
    </rdf:RDF>
  </metadata>
  <g
     inkscape:label="Layer 1"
     inkscape:groupmode="layer"
     id="layer1"
     transform="translate(-61.647916,-208.45909)">
    <path
       id="path12"
       d="m 101.88919,216.46484 c 0.42306,-0.32014 0.64637,-0.77946 0.64637,-1.32873 0,-0.55483 -0.20796,-0.96997 -0.63606,-1.26947 -0.37517,-0.26221 -0.86756,-0.40058 -1.30175,-0.52256 -0.624938,-0.17594 -1.164159,-0.32755 -1.164159,-0.78237 0,-0.32649 0.269081,-0.65617 0.871009,-0.65617 0.39555,0 0.73342,0.15479 0.9517,0.43524 0.0593,0.0762 0.14949,0.12039 0.24712,0.12039 0.0542,0 0.10875,-0.0143 0.1569,-0.0413 l 0.74613,-0.41777 c -0.4064,-0.75989 -1.17105,-1.19486 -2.10185,-1.19486 -0.57838,0 -1.105695,0.16986 -1.484314,0.47889 -0.397668,0.32438 -0.607747,0.77365 -0.607747,1.29911 0,0.53525 0.205845,0.93848 0.629972,1.23296 0.37227,0.2585 0.862013,0.39952 1.294339,0.52387 0.63183,0.18151 1.17766,0.33867 1.17766,0.79375 0,0.42836 -0.36168,0.6739 -0.99272,0.6739 -0.636316,0 -1.105951,-0.30057 -1.292747,-0.8255 l -1.034521,0.59531 c 0.384969,0.85593 1.232164,1.3462 2.327268,1.3462 0.61781,0 1.17423,-0.16378 1.5674,-0.46091 z m 6.38175,-2.5982 c 0,-1.0795 -0.77788,-1.85791 -1.8079,-1.85791 -1.02976,0 -1.80816,0.77814 -1.80816,1.85791 0,1.07976 0.7784,1.85737 1.80816,1.85737 1.03002,0 1.80816,-0.77761 1.80816,-1.85737 z m 1.23586,0 c 0,1.72402 -1.28164,3.05911 -2.84347,3.05911 -0.90382,0 -1.57348,-0.37703 -2.00819,-0.99854 v 0.72575 c 0,0.0963 -0.27675,0.1741 -0.6178,0.1741 -0.34131,0 -0.6178,-0.0778 -0.6178,-0.1741 v -7.02363 c 0,-0.50006 0.39952,-0.90566 0.89217,-0.90566 h 0.34317 v 3.08186 c 0.43497,-0.62098 1.10463,-0.99827 2.00845,-0.99827 1.56183,0 2.84347,1.33509 2.84347,3.05938 z m 10.97545,-3.05938 c -0.7837,0 -1.39594,0.2958 -1.77959,0.89958 v -0.74295 h -0.89217 c -0.18971,0 -0.34343,0.15611 -0.34343,0.34819 v 5.34115 c 0,0.0963 0.27649,0.17409 0.6178,0.17409 0.34131,0 0.6178,-0.0778 0.6178,-0.17409 v -2.98979 c 0,-1.1901 0.64082,-1.67746 1.45892,-1.67746 0.77258,0 1.27582,0.4699 1.27582,1.34064 v 3.32661 h 2.6e-4 c 0,0.0963 0.27649,0.17409 0.6178,0.17409 0.34132,0 0.61781,-0.0778 0.61781,-0.17409 v -3.44858 c 0,-1.51527 -0.91546,-2.39739 -2.19102,-2.39739 z m -30.340297,-1.17793 v 7.02363 c 0,0.0963 0.27649,0.1741 0.617802,0.1741 0.341313,0 0.617802,-0.0778 0.617802,-0.1741 v -7.92929 h -0.3429 c -0.492918,0 -0.892704,0.4056 -0.892704,0.90566 z m 5.188479,4.17328 2.517511,-2.83872 h -1.159934 c -0.230187,0 -0.448998,0.10054 -0.601133,0.27596 l -1.9558,2.25531 a 0.46884167,0.46884167 0 0 0 0.0011,0.61436 l 2.080684,2.38575 c 0.124354,0.14208 0.461698,0.33179 0.979487,0.33179 0.187061,0 0.354806,-0.0228 0.470694,-0.058 0.131233,-0.0402 0.1778,-0.0984 0.157956,-0.12117 z m -1.819275,-5.07894 h 0.343429 v 7.92956 c 0,0.096 -0.277018,0.17383 -0.618066,0.17383 -0.341313,0 -0.617802,-0.0778 -0.617802,-0.1741 v -7.02363 c 0,-0.50006 0.399521,-0.90566 0.892439,-0.90566 z m 33.088263,5.07894 2.51724,-2.83872 h -1.15967 c -0.23018,0 -0.44952,0.10054 -0.60139,0.27596 l -1.9558,2.25531 a 0.46910625,0.46910625 0 0 0 0.001,0.61436 l 2.08068,2.38575 c 0.12435,0.14208 0.4617,0.33179 0.97949,0.33179 0.18706,0 0.3548,-0.0228 0.47096,-0.058 0.1307,-0.0402 0.17753,-0.0984 0.15769,-0.12117 z m -1.81954,-5.07894 h 0.34343 v 7.92956 c 0,0.096 -0.27676,0.17383 -0.61807,0.17383 -0.34131,0 -0.6178,-0.0778 -0.6178,-0.1741 v -7.02363 c 0,-0.50006 0.39952,-0.90566 0.89244,-0.90566 z m -58.015451,5.14297 c 0,-1.0795 -0.778405,-1.85791 -1.808163,-1.85791 -1.030024,0 -1.807899,0.77814 -1.807899,1.85791 0,1.07976 0.777875,1.85737 1.807899,1.85737 1.029758,0 1.808163,-0.77761 1.808163,-1.85737 z m 0.892175,-5.14297 h 0.343429 v 7.92956 c 0,0.096 -0.276754,0.17383 -0.618067,0.17383 -0.341312,0 -0.617537,-0.0778 -0.617537,-0.1741 v -0.72575 c -0.43524,0.62151 -1.104637,0.99854 -2.008452,0.99854 -1.561837,0 -2.843478,-1.33509 -2.843478,-3.05911 0,-1.72456 1.281641,-3.05938 2.843478,-3.05938 0.903815,0 1.573212,0.37729 2.008187,0.99827 v -2.1762 c 0,-0.50006 0.399521,-0.90566 0.89244,-0.90566 z m 20.282164,5.14297 c 0,-1.05649 -0.777875,-1.83462 -1.7907,-1.83462 -1.001184,0 -1.779323,0.77787 -1.779323,1.83462 0,1.05648 0.777875,1.83435 1.779323,1.83435 1.012825,0 1.7907,-0.77787 1.7907,-1.83435 z m 1.235604,0 c 2.64e-4,1.72402 -1.34964,3.05911 -3.02604,3.05911 -1.6764,0 -3.015191,-1.33509 -3.015191,-3.05911 0,-1.72429 1.338791,-3.05938 3.015191,-3.05938 1.6764,0 3.026569,1.33509 3.026569,3.05938 z m 25.815918,0 c 0,-1.0795 -0.77814,-1.85791 -1.81371,-1.85791 -1.02421,0 -1.80235,0.77814 -1.80235,1.85791 0,1.07976 0.77788,1.85737 1.80235,1.85737 1.03557,0 1.81371,-0.77761 1.81371,-1.85737 z m 0.34317,-2.90248 h 0.8927 v 5.6888 h -2.6e-4 c 0,0.0963 -0.27676,0.1741 -0.6178,0.1741 -0.34132,0 -0.61781,-0.0778 -0.61781,-0.1741 v -0.72575 c -0.43497,0.61569 -1.11019,0.99854 -2.014,0.99854 -1.55628,0 -2.83766,-1.33509 -2.83766,-3.05911 0,-1.72429 1.28138,-3.05938 2.83766,-3.05938 0.90381,0 1.57903,0.38312 2.014,0.99827 v -0.49345 c 0,-0.19235 0.15346,-0.34819 0.34317,-0.34819 z m -36.608013,0.53234 a 0.8016875,0.8016875 0 0 0 -0.751946,-0.53261 h -1.160992 c 0.246063,0 0.544513,0.45932 0.714375,0.90064 l 1.801813,4.68313 c 0.05106,0.13335 0.178064,0.22146 0.319617,0.22146 h 0.955145 c 0.141553,0 0.293688,-0.0926 0.320146,-0.22173 0.650081,-3.22712 2.053431,-5.9002 3.934884,-6.32221 -1.224228,-0.10213 -2.207948,0.27305 -2.909623,0.9652 -0.663311,0.65378 -1.141942,1.51791 -1.934634,3.86794 z m -5.147998,1.88807 c -0.177271,-0.99272 -0.89244,-1.42796 -1.630627,-1.42796 -0.932392,0 -1.573212,0.55166 -1.739106,1.42796 z m -3.358356,1.02182 c 0.20029,0.90566 0.912018,1.36419 1.800225,1.36419 0.519641,0 0.983721,-0.17939 1.274498,-0.4445 h 1.400704 c -0.184944,0.55007 -1.02235,1.59967 -2.655888,1.59967 -1.882246,0 -3.101446,-1.32345 -3.101446,-3.05911 0,-1.72429 1.2192,-3.05938 3.009636,-3.05938 1.471877,0 2.8702,1.1348 2.8702,3.0652 v 0.20981 c 0,0.18283 -0.161396,0.32412 -0.341577,0.32412 z"
       inkscape:connector-curvature="0"
       style="fill:#009ade;fill-rule:evenodd;stroke-width:0.26458332" />
  </g>
</svg>
